# xmcd
#
# Track frame offsets:
#	150
#	17889
#	31986
#	49307
#	67597
#	84529
#	102071
#	118418
#	133829
#	147633
#	162588
#	175291
#	189638
#
# Disc length: 2816 seconds
#
# Revision: 1
# Processed by: cddbd v1.5.2PL0 Copyright (c) Steve Scherf et al.
# Submitted via: EasyCDDAExtractor 10.0.5.1
#
DISCID=bd0afe0d
DTITLE=Lee Kernaghan - The New Bush
DYEAR=2006
DGENRE=Country
TTITLE0=Where I Come From
TTITLE1=Listen To The Radio
TTITLE2=The New Bush
TTITLE3=Diamantina Dream
TTITLE4=Love Shack
TTITLE5=Western World
TTITLE6=I'll Remember You
TTITLE7=Livin' In Australia
TTITLE8=Little Men
TTITLE9=Like Angels
TTITLE10=On The Beach
TTITLE11=When Country Comes
TTITLE12=006
EXTD=
EXTT0=
EXTT1=
EXTT2=
EXTT3=
EXTT4=
EXTT5=
EXTT6=
EXTT7=
EXTT8=
EXTT9=
EXTT10=
EXTT11=
EXTT12=
PLAYORDER=
